# xmcd CD database generated by RipIT
#
# Track frame offsets:
# 150
# 21819
# 39737
# 55993
# 67622
# 81729
# 137881
# 157243
# 178148
# 195238
# 213150
# 273155
# 302416
# 316757
#
# Disc length: 4425 seconds
#
# Revision: 0
# Processed by: cddbd v1.5.2PL0 Copyright (c) Steve Scherf et al.
# Submitted via: RipIT 3.9.0 www.suwald.com/ripit/ripit.html on 2012-11-01 at 23:09
#
DISCID=be11470e
DTITLE=Emmerson Lake and Palmer - The Essential Disc 2
DYEAR=2011
DGENRE=Rock
TTITLE0=Karn Evil 9 1st impession - part 2
TTITLE1=Nutrocker
TTITLE2=Peter Gunn
TTITLE3=All I want is you
TTITLE4=Brian salad surgery
TTITLE5=Take a pebble
TTITLE6=C'est la vie
TTITLE7=Lucky man
TTITLE8=Affairs of the heart
TTITLE9=Canaro
TTITLE10=Pirates
TTITLE11=The great gates of Kiev
TTITLE12=Honky tonk train blues
TTITLE13=The enemy god dances with the black spirits
EXTD=
EXTT0=
EXTT1=
EXTT2=
EXTT3=
EXTT4=
EXTT5=
EXTT6=
EXTT7=
EXTT8=
EXTT9=
EXTT10=
EXTT11=
EXTT12=
EXTT13=
PLAYORDER=
